# xmcd
#
# Track frame offsets:
#	150
#	14505
#	31150
#	45000
#	58222
#	74045
#	80560
#	106372
#	125205
#	140317
#	153440
#	167967
#	178192
#	193830
#
# Disc length: 2808 seconds
#
# Revision: 0
# Processed by: cddbd v1.5.2PL0 Copyright (c) Steve Scherf et al.
# Submitted via: EasyCDDAExtractor 16.0.6.1
#
DISCID=ca0af60e
DTITLE=Άνευ ερμηνευτού - Οι δεξιοτέχνες 1-14 Οργανικά μπουζούκι σόλο       
DYEAR=1992
DGENRE=Οργανική μπουζούκι
TTITLE0=Ταξίμ ζεϊμπέκικο [Μάρκος Βαμβακάρης]
TTITLE1=Φαντασία [Βασίλης Τσιτσάνης]
TTITLE2=Σέρβικος χορός [Γιάννης Παπαϊωάννου]
TTITLE3=Παλιό μεράκι [Γιώργος Μητσάκης]
TTITLE4=Χασάπικο αλλέγκρο [Χάρης Λεμονόπουλος]
TTITLE5=Ταξίμι πειραιώτικο [Γιώργος Ζαμπέτας]
TTITLE6=Όταν είμαι στα κέφια [Μανώλης Χιώτης]
TTITLE7=Πρόκληση για μπαγλαμά [Βασίλης Τσιτσάνης]
TTITLE8=Απτάλικο [Γιώργος Μητσάκης]
TTITLE9=Αυτοσχεδιασμός σε μινόρε [Γιάννης Τατασόπουλος]
TTITLE10=Νυχτερινό παράπονο [Γιώργος Λαύκας]
TTITLE11=Δύο χοροί αλλέγκρο [Μανώλης Χιώτης]
TTITLE12=Πεννιές Μπέμπη [Δημήτρης Στεργίου ή Μπέμπης]
TTITLE13=Όταν παίζει το μπουζούκι [Γιάννης Παπαϊωάννου]
EXTD=
EXTT0=
EXTT1=
EXTT2=
EXTT3=
EXTT4=
EXTT5=
EXTT6=
EXTT7=
EXTT8=
EXTT9=
EXTT10=
EXTT11=
EXTT12=
EXTT13=
PLAYORDER=
